<svg xmlns="http://www.w3.org/2000/svg" viewBox="0 0 179.56 157.57"><defs><style>.cls-1{font-size:24.6px;font-family:Montserrat-Bold, Montserrat;font-weight:700;letter-spacing:0.01em;}.cls-1,.cls-2{fill:#57a5d6;}</style></defs><title>Asset 1</title><g id="Layer_2" data-name="Layer 2"><g id="OBJECTS"><text class="cls-1" transform="translate(0 151.03)">BOOKFINDER</text><path class="cls-2" d="M57.41,19.29a1.72,1.72,0,0,1,1.73-1.73h60.31a1.73,1.73,0,0,1,0,3.45H59.14A1.72,1.72,0,0,1,57.41,19.29ZM59.14,14h60.31a1.73,1.73,0,0,0,0-3.45H59.14a1.73,1.73,0,1,0,0,3.45ZM137,28.41v84.65a3.45,3.45,0,0,1-3.46,3.45H58.49a16,16,0,0,1-15.93-15.93V15.93h0A16,16,0,0,1,58.49,0h75.06a3.45,3.45,0,1,1,0,6.9h-2V25h2A3.45,3.45,0,0,1,137,28.41ZM49.46,15.93a9,9,0,0,0,9,9h69.59V6.9H58.49A9,9,0,0,0,49.46,15.93ZM130.1,31.86H58.49a15.87,15.87,0,0,1-9-2.81v71.53a9,9,0,0,0,9,9H130.1Z"/></g></g></svg>