<svg xmlns="http://www.w3.org/2000/svg" viewBox="0 0 291.65 58.26"><defs><style>.cls-1{font-size:32.55px;font-family:Montserrat-Bold, Montserrat;font-weight:700;letter-spacing:0.01em;}.cls-1,.cls-2{fill:#57a5d6;}</style></defs><title>Asset 2</title><g id="Layer_2" data-name="Layer 2"><g id="OBJECTS"><text class="cls-1" transform="translate(54.06 40.63)">BOOKFINDER</text><path class="cls-2" d="M7.43,9.64a.86.86,0,0,1,.86-.86H38.44a.87.87,0,1,1,0,1.73H8.29A.86.86,0,0,1,7.43,9.64ZM8.29,7H38.44a.86.86,0,1,0,0-1.72H8.29A.86.86,0,0,0,8.29,7Zm38.93,7.2V56.53a1.73,1.73,0,0,1-1.72,1.73H8a8,8,0,0,1-8-8V8H0A8,8,0,0,1,8,0H45.5a1.73,1.73,0,0,1,0,3.45h-1v9h1A1.72,1.72,0,0,1,47.22,14.2ZM3.45,8A4.53,4.53,0,0,0,8,12.48H42.76v-9H8A4.53,4.53,0,0,0,3.45,8Zm40.32,8H8a7.92,7.92,0,0,1-4.52-1.41V50.29A4.52,4.52,0,0,0,8,54.8h35.8Z"/></g></g></svg>